<svg width="177" height="139" viewBox="0 0 177 139" fill="none" xmlns="http://www.w3.org/2000/svg">
<circle cx="3.15347" cy="3.15347" r="3.15347" fill="#F4F4FA"/>
<circle cx="3.15347" cy="22.0741" r="3.15347" fill="#F4F4FA"/>
<circle cx="3.15347" cy="40.995" r="3.15347" fill="#F4F4FA"/>
<circle cx="3.15347" cy="59.9159" r="3.15347" fill="#F4F4FA"/>
<circle cx="3.15347" cy="78.8366" r="3.15347" fill="#F4F4FA"/>
<circle cx="3.15347" cy="97.7575" r="3.15347" fill="#F4F4FA"/>
<circle cx="3.15347" cy="116.678" r="3.15347" fill="#F4F4FA"/>
<circle cx="3.15347" cy="135.599" r="3.15347" fill="#F4F4FA"/>
<circle cx="22.0744" cy="3.15347" r="3.15347" fill="#F4F4FA"/>
<circle cx="22.0744" cy="22.0741" r="3.15347" fill="#F4F4FA"/>
<circle cx="22.0744" cy="40.995" r="3.15347" fill="#F4F4FA"/>
<circle cx="22.0744" cy="59.9159" r="3.15347" fill="#F4F4FA"/>
<circle cx="22.0744" cy="78.8366" r="3.15347" fill="#F4F4FA"/>
<circle cx="22.0744" cy="97.7575" r="3.15347" fill="#F4F4FA"/>
<circle cx="22.0744" cy="116.678" r="3.15347" fill="#F4F4FA"/>
<circle cx="22.0744" cy="135.599" r="3.15347" fill="#F4F4FA"/>
<circle cx="40.995" cy="3.15347" r="3.15347" fill="#F4F4FA"/>
<circle cx="40.995" cy="22.0741" r="3.15347" fill="#F4F4FA"/>
<circle cx="40.995" cy="40.995" r="3.15347" fill="#F4F4FA"/>
<circle cx="40.995" cy="59.9159" r="3.15347" fill="#F4F4FA"/>
<circle cx="40.995" cy="78.8366" r="3.15347" fill="#F4F4FA"/>
<circle cx="40.995" cy="97.7575" r="3.15347" fill="#F4F4FA"/>
<circle cx="40.995" cy="116.678" r="3.15347" fill="#F4F4FA"/>
<circle cx="40.995" cy="135.599" r="3.15347" fill="#F4F4FA"/>
<circle cx="59.9159" cy="3.15347" r="3.15347" fill="#F4F4FA"/>
<circle cx="59.9159" cy="22.0741" r="3.15347" fill="#F4F4FA"/>
<circle cx="59.9159" cy="40.995" r="3.15347" fill="#F4F4FA"/>
<circle cx="59.9159" cy="59.9159" r="3.15347" fill="#F4F4FA"/>
<circle cx="59.9159" cy="78.8366" r="3.15347" fill="#F4F4FA"/>
<circle cx="59.9159" cy="97.7575" r="3.15347" fill="#F4F4FA"/>
<circle cx="59.9159" cy="116.678" r="3.15347" fill="#F4F4FA"/>
<circle cx="59.9159" cy="135.599" r="3.15347" fill="#F4F4FA"/>
<circle cx="78.8366" cy="3.15347" r="3.15347" fill="#F4F4FA"/>
<circle cx="78.8366" cy="22.0741" r="3.15347" fill="#F4F4FA"/>
<circle cx="78.8366" cy="40.995" r="3.15347" fill="#F4F4FA"/>
<circle cx="78.8366" cy="59.9159" r="3.15347" fill="#F4F4FA"/>
<circle cx="78.8366" cy="78.8366" r="3.15347" fill="#F4F4FA"/>
<circle cx="78.8366" cy="97.7575" r="3.15347" fill="#F4F4FA"/>
<circle cx="78.8366" cy="116.678" r="3.15347" fill="#F4F4FA"/>
<circle cx="78.8366" cy="135.599" r="3.15347" fill="#F4F4FA"/>
<circle cx="97.7575" cy="3.15347" r="3.15347" fill="#F4F4FA"/>
<circle cx="97.7575" cy="22.0741" r="3.15347" fill="#F4F4FA"/>
<circle cx="97.7575" cy="40.995" r="3.15347" fill="#F4F4FA"/>
<circle cx="97.7575" cy="59.9159" r="3.15347" fill="#F4F4FA"/>
<circle cx="97.7575" cy="78.8366" r="3.15347" fill="#F4F4FA"/>
<circle cx="97.7575" cy="97.7575" r="3.15347" fill="#F4F4FA"/>
<circle cx="97.7575" cy="116.678" r="3.15347" fill="#F4F4FA"/>
<circle cx="97.7575" cy="135.599" r="3.15347" fill="#F4F4FA"/>
<circle cx="116.678" cy="3.15347" r="3.15347" fill="#F4F4FA"/>
<circle cx="116.678" cy="22.0741" r="3.15347" fill="#F4F4FA"/>
<circle cx="116.678" cy="40.995" r="3.15347" fill="#F4F4FA"/>
<circle cx="116.678" cy="59.9159" r="3.15347" fill="#F4F4FA"/>
<circle cx="116.678" cy="78.8366" r="3.15347" fill="#F4F4FA"/>
<circle cx="116.678" cy="97.7575" r="3.15347" fill="#F4F4FA"/>
<circle cx="116.678" cy="116.678" r="3.15347" fill="#F4F4FA"/>
<circle cx="116.678" cy="135.599" r="3.15347" fill="#F4F4FA"/>
<circle cx="135.599" cy="3.15347" r="3.15347" fill="#F4F4FA"/>
<circle cx="135.599" cy="22.0741" r="3.15347" fill="#F4F4FA"/>
<circle cx="135.599" cy="40.995" r="3.15347" fill="#F4F4FA"/>
<circle cx="135.599" cy="59.9159" r="3.15347" fill="#F4F4FA"/>
<circle cx="135.599" cy="78.8366" r="3.15347" fill="#F4F4FA"/>
<circle cx="135.599" cy="97.7575" r="3.15347" fill="#F4F4FA"/>
<circle cx="135.599" cy="116.678" r="3.15347" fill="#F4F4FA"/>
<circle cx="135.599" cy="135.599" r="3.15347" fill="#F4F4FA"/>
<circle cx="154.52" cy="3.15347" r="3.15347" fill="#F4F4FA"/>
<circle cx="154.52" cy="22.0741" r="3.15347" fill="#F4F4FA"/>
<circle cx="154.52" cy="40.995" r="3.15347" fill="#F4F4FA"/>
<circle cx="154.52" cy="59.9159" r="3.15347" fill="#F4F4FA"/>
<circle cx="154.52" cy="78.8366" r="3.15347" fill="#F4F4FA"/>
<circle cx="154.52" cy="97.7575" r="3.15347" fill="#F4F4FA"/>
<circle cx="154.52" cy="116.678" r="3.15347" fill="#F4F4FA"/>
<circle cx="154.52" cy="135.599" r="3.15347" fill="#F4F4FA"/>
<circle cx="173.441" cy="3.15347" r="3.15347" fill="#F4F4FA"/>
<circle cx="173.441" cy="22.0741" r="3.15347" fill="#F4F4FA"/>
<circle cx="173.441" cy="40.995" r="3.15347" fill="#F4F4FA"/>
<circle cx="173.441" cy="59.9159" r="3.15347" fill="#F4F4FA"/>
<circle cx="173.441" cy="78.8366" r="3.15347" fill="#F4F4FA"/>
<circle cx="173.441" cy="97.7575" r="3.15347" fill="#F4F4FA"/>
<circle cx="173.441" cy="116.678" r="3.15347" fill="#F4F4FA"/>
<circle cx="173.441" cy="135.599" r="3.15347" fill="#F4F4FA"/>
</svg>
